# xmcd
#
# Track frame offsets: 
#        150
#        21815
#        40365
#        62030
#
# Disc length: 1070 seconds
#
# Revision: 2
# Processed by: cddbd v1.5.2PL0 Copyright (c) Steve Scherf et al.
# Submitted via: ExactAudioCopy v0.99pb5
#
DISCID=2e042c04
DTITLE=Koda Kumi - Promise-Star
DYEAR=2005
DGENRE=J-Pop
TTITLE0=Promise
TTITLE1=Star
TTITLE2=Promise (Instrumental)
TTITLE3=Star (Instrumental)
EXTD=YEAR: 2005
EXTT0=
EXTT1=
EXTT2=
EXTT3=
PLAYORDER=
